<mxfile host="app.diagrams.net" modified="2023-08-29T09:59:06.721Z" agent="Mozilla/5.0 (Windows NT 10.0; Win64; x64) AppleWebKit/537.36 (KHTML, like Gecko) Chrome/116.0.0.0 Safari/537.36" version="21.6.6" etag="abHNXGchnspSGeYmoZAb" type="github">
  <diagram name="第 1 页" id="21q4K6BLsOGPsvkydMIN">
    <mxGraphModel>
      <root>
        <mxCell id="0" />
        <mxCell id="1" parent="0" />
      </root>
    </mxGraphModel>
  </diagram>
</mxfile>
